<svg width="59" height="50" viewBox="0 0 59 50" fill="none" xmlns="http://www.w3.org/2000/svg">
<path d="M57.5 28.125C56.81 28.125 56.25 28.685 56.25 29.375V42.5013C56.25 45.2575 54.0075 47.5 51.2513 47.5H7.49875C4.7425 47.5 2.5 45.2575 2.5 42.5013V29.375C2.5 28.685 1.94 28.125 1.25 28.125C0.56 28.125 0 28.685 0 29.375V42.5013C0 46.6362 3.36375 50 7.49875 50H51.2513C55.3862 50 58.75 46.6362 58.75 42.5013V29.375C58.75 28.685 58.19 28.125 57.5 28.125Z" fill="#AB8D3F"/>
<path d="M51.2513 8.125H41.875V4.37562C41.875 1.96312 39.9119 0 37.4994 0H21.2506C18.8381 0 16.875 1.96312 16.875 4.37562V8.125H7.49875C3.36375 8.125 0 11.4888 0 15.6238V25H0.171875C0.26125 25.155 0.381875 25.2944 0.53875 25.4031C0.83375 25.6075 7.81 30.305 24.375 31.1262V33.75C24.375 35.4731 25.7769 36.875 27.5 36.875H31.25C32.9731 36.875 34.375 35.4731 34.375 33.75V31.1262C50.9406 30.305 57.9163 25.6069 58.2113 25.4025C58.3681 25.2938 58.4888 25.1544 58.5781 24.9994H58.75V15.6238C58.75 11.4888 55.3862 8.125 51.2513 8.125ZM19.375 4.37562C19.375 3.34187 20.2169 2.5 21.2506 2.5H37.4987C38.5331 2.5 39.375 3.34187 39.375 4.37562V8.125H19.375V4.37562ZM31.875 33.75C31.875 34.0944 31.5944 34.375 31.25 34.375H27.5C27.1556 34.375 26.875 34.0944 26.875 33.75V26.25C26.875 25.9056 27.1556 25.625 27.5 25.625H31.25C31.5944 25.625 31.875 25.9056 31.875 26.25V33.75ZM31.25 23.125H27.5C25.7769 23.125 24.375 24.5269 24.375 26.25V28.6238C11.1888 27.9494 4.37125 24.7063 2.5 23.6663V15.6238C2.5 12.8675 4.7425 10.625 7.49875 10.625H51.2513C54.0075 10.625 56.25 12.8675 56.25 15.6238V23.6669C54.3787 24.7075 47.5606 27.95 34.375 28.6244V26.25C34.375 24.5269 32.9731 23.125 31.25 23.125Z" fill="#AB8D3F"/>
</svg>
