<svg width="45" height="45" viewBox="0 0 45 45" fill="none" xmlns="http://www.w3.org/2000/svg">
<path d="M30 7.5H15C10.8578 7.5 7.49995 10.8579 7.49995 15V30C7.49995 34.1421 10.8578 37.5 15 37.5H30C34.1421 37.5 37.5 34.1421 37.5 30V15C37.5 10.8579 34.1421 7.5 30 7.5Z" stroke="#AB8D3F" stroke-width="2.75" stroke-linecap="round" stroke-linejoin="round"/>
<path d="M22.5 28.125C25.6066 28.125 28.125 25.6066 28.125 22.5C28.125 19.3934 25.6066 16.875 22.5 16.875C19.3934 16.875 16.875 19.3934 16.875 22.5C16.875 25.6066 19.3934 28.125 22.5 28.125Z" stroke="#AB8D3F" stroke-width="2.75" stroke-linecap="round" stroke-linejoin="round"/>
<path d="M30.9375 14.0625V14.0635" stroke="#AB8D3F" stroke-width="2.75" stroke-linecap="round" stroke-linejoin="round"/>
</svg>
