<svg width="21" height="50" viewBox="0 0 21 50" fill="none" xmlns="http://www.w3.org/2000/svg">
<path d="M10.3296 0C6.59774 0 3.5508 3.00073 3.5508 6.69385C3.5508 8.81092 4.55895 10.7126 6.11621 11.9436H3.92457C1.7716 11.9436 0 13.6854 0 15.8342V29.2049C0 31.3537 1.7716 33.1125 3.92457 33.1125H4.65511L5.43663 48.9636C5.44977 49.2431 5.5701 49.5067 5.7726 49.6997C5.97511 49.8927 6.2442 50.0003 6.52395 50H14.1352C14.415 50.0003 14.6841 49.8927 14.8866 49.6997C15.0891 49.5067 15.2094 49.2431 15.2226 48.9636L16.0041 33.1125H16.7346C18.8876 33.1125 20.6592 31.3537 20.6592 29.2049V15.8342C20.6592 13.6854 18.8876 11.9436 16.7346 11.9436H14.543C16.1002 10.7126 17.1084 8.81092 17.1084 6.69385C17.1084 3.00073 14.0615 0 10.3296 0ZM10.3296 2.14067C12.88 2.14067 14.9337 4.16988 14.9337 6.69385C14.9337 9.21782 12.88 11.247 10.3296 11.247C7.77916 11.247 5.72545 9.21782 5.72545 6.69385C5.72545 4.16988 7.77916 2.14067 10.3296 2.14067ZM3.92457 14.1182H16.7346C17.7326 14.1182 18.4845 14.8648 18.4845 15.8342V29.2049C18.4845 30.1743 17.7326 30.9378 16.7346 30.9378H16.106L16.3948 25.0425C16.4103 24.7543 16.3106 24.4718 16.1179 24.257C15.9252 24.0422 15.6551 23.9127 15.3669 23.897C15.0787 23.8812 14.7961 23.9805 14.5811 24.173C14.3661 24.3654 14.2363 24.6354 14.2202 24.9235L13.0989 47.8253H7.56031L6.43901 24.9235C6.43251 24.7792 6.39731 24.6376 6.33547 24.507C6.27362 24.3764 6.18637 24.2595 6.07881 24.163C5.97125 24.0665 5.84554 23.9924 5.70903 23.945C5.57251 23.8977 5.42793 23.878 5.28372 23.8872C5.14084 23.8959 5.00108 23.9326 4.87245 23.9954C4.74382 24.0582 4.62885 24.1458 4.53414 24.2532C4.43944 24.3605 4.36686 24.4855 4.32056 24.6209C4.27426 24.7564 4.25516 24.8996 4.26436 25.0425L4.55318 30.9378H3.92457C2.92663 30.9378 2.17465 30.1743 2.17465 29.2049V15.8342C2.17465 14.8648 2.92663 14.1182 3.92457 14.1182Z" fill="#AB8D3F"/>
</svg>
