<svg width="50" height="50" viewBox="0 0 50 50" fill="none" xmlns="http://www.w3.org/2000/svg">
<path fill-rule="evenodd" clip-rule="evenodd" d="M48.9718 0.855019C48.4045 0.287676 47.6016 0 46.5853 0C43.6944 0 39.3705 2.40532 37.7798 3.99592L30.7005 11.0758L11.8243 5.6968C11.45 5.5898 11.0456 5.69466 10.7692 5.97053L5.94946 10.7902C5.71448 11.0252 5.60155 11.356 5.64297 11.6856C5.68489 12.0152 5.87688 12.3072 6.16242 12.4766L20.7023 21.0734L11.9818 29.7939L5.24181 29.1987C4.92616 29.1707 4.61158 29.2847 4.38681 29.5095L0.315042 33.5812C0.0628455 33.8334 -0.0479252 34.1942 0.0192921 34.5448C0.0865094 34.8949 0.323116 35.1896 0.650587 35.33L10.4563 39.5437L14.67 49.3493C14.8109 49.6768 15.105 49.9134 15.4551 49.9806C15.4828 49.9859 15.5105 49.9901 15.5382 49.9932C15.5782 49.9977 15.6181 50 15.6578 50C15.9401 50 16.2149 49.8887 16.4181 49.6854L20.4899 45.6137C20.7147 45.3884 20.8287 45.0754 20.8007 44.7581L20.1877 37.8213L28.9561 29.0529L37.9519 44.2666C38.1213 44.5527 38.4128 44.7447 38.7429 44.7861C39.0742 44.8291 39.4038 44.7146 39.6383 44.4796L44.458 39.6598C44.7339 39.3834 44.8387 38.9796 44.7317 38.6048L39.1161 18.894L45.897 12.1131C46.9617 11.0484 48.2614 8.91141 49.0584 6.91587C50.1736 4.12284 50.1666 2.04987 49.0385 0.922236L48.9718 0.855019ZM47.0606 6.11838C46.2885 8.05262 45.1011 9.86696 44.3763 10.5918L37.148 17.8201C36.8721 18.0965 36.7673 18.5004 36.8743 18.8757L42.4904 38.5865L39.0983 41.9786L30.1031 26.7649C29.9337 26.4788 29.6422 26.2868 29.3121 26.2454C28.9797 26.2029 28.6517 26.3169 28.4167 26.5514L18.3126 36.6549C18.0879 36.8802 17.9738 37.1932 18.0018 37.5105L18.6148 44.4478L16.0197 47.0424L12.2631 38.3004C12.1544 38.0471 11.9528 37.8455 11.6995 37.7369L2.95803 33.9802L5.55263 31.3856L12.2926 31.9809C12.6077 32.0099 12.9229 31.8949 13.1476 31.6701L23.2034 21.6138C23.4384 21.3789 23.5513 21.0481 23.5099 20.7185C23.4679 20.3889 23.276 20.0969 22.9904 19.9275L8.45103 11.3307L11.8431 7.93863L30.7193 13.3171C31.0941 13.4236 31.4985 13.3192 31.7744 13.0434L39.3011 5.51664C40.6304 4.18736 44.4231 2.15043 46.5858 2.15043C46.9988 2.15043 47.3059 2.22999 47.4505 2.37466L47.5172 2.44132C47.8769 2.80163 47.8753 4.0782 47.0606 6.11838Z" fill="#AB8D3F"/>
</svg>
