<svg width="45" height="45" viewBox="0 0 45 45" fill="none" xmlns="http://www.w3.org/2000/svg">
<path d="M41.25 7.51878C39.375 8.43753 37.5375 8.81065 35.625 9.37503C33.5232 7.00315 30.4069 6.8719 27.4125 7.99315C24.4182 9.1144 22.4569 11.8557 22.5 15V16.875C16.4157 17.0307 10.9969 14.2594 7.50005 9.37503C7.50005 9.37503 -0.341204 23.3119 15 30C11.49 32.3382 7.98942 33.915 3.75005 33.75C9.95255 37.1307 16.7119 38.2932 22.5638 36.5944C29.2763 34.6444 34.7925 29.6138 36.9094 22.0782C37.5409 19.7863 37.8545 17.4185 37.8413 15.0413C37.8375 14.5744 40.6725 9.84378 41.25 7.5169V7.51878Z" stroke="#AB8D3F" stroke-width="2.75" stroke-linecap="round" stroke-linejoin="round"/>
</svg>
